# xmcd
#
# Track frame offsets:
#	150
#	18584
#	37575
#	67363
#
# Disc length: 1586 seconds
#
# Revision: 1
# Processed by: cddbd v1.5.2PL0 Copyright (c) Steve Scherf et al.
# Submitted via: audiograbber 1.83.01
#
DISCID=2e063004
DTITLE=Will.i.am - I got it From my Mama
DYEAR=2007
DGENRE=R&B
TTITLE0=I got it From my Mama (Album Version)
TTITLE1=I got it From my Mama (feat.Busto Rhymes remix)
TTITLE2=I got it From my Mama (Instromental)
TTITLE3=I got it From my Mama (Extendet Video)
EXTD=
EXTT0=
EXTT1=
EXTT2=
EXTT3=
PLAYORDER=
